<svg width="228" height="57" viewBox="0 0 228 57" fill="none" xmlns="http://www.w3.org/2000/svg">
<g filter="url(#filter0_dd_7016_64433)">
<path d="M118.819 30.1598H104.477L111.379 11.5239L118.819 30.1598ZM34.6781 18.6378C33.9071 20.1515 31.9922 22.6522 28.3865 22.6522H15.5074V8.23397H27.8557C30.6905 8.23397 33.8336 8.76257 35.1389 11.9194C36.0569 14.0966 35.3702 17.1888 34.6799 18.6396M137.147 48.0047L117.975 0H104.709L88.5682 39.7744H57.1335V27.3948H83.8938V19.1664H57.1335V8.23581H86.1207V0.00369729H45.6296V8.69233C45.5059 8.38552 45.4055 8.06208 45.2603 7.7756C41.4233 0.003698 32.8349 0.00369729 28.8473 0.00369729H4V48.0084H15.5056V30.888H29.2292C35.7485 31.2817 41.5757 28.781 45.1796 22.3269C45.3428 22.0071 45.4898 21.6338 45.6279 21.2623V48.0084H96.9594L100.87 38.3956H121.577L125.411 48.0084H137.146L137.147 48.0047Z" fill="#74045F"/>
<rect x="137.219" y="20.7004" width="11.4751" height="27.3541" fill="#74045F"/>
<rect x="168.955" y="20.7004" width="11.4751" height="27.3541" fill="#74045F"/>
<rect x="200.691" y="20.7004" width="11.4751" height="27.3541" fill="#74045F"/>
<rect x="137.219" width="11.4751" height="10.3502" fill="#FFC85F"/>
<rect x="155.508" width="68.4922" height="10.3502" fill="#74045F"/>
</g>
<defs>
<filter id="filter0_dd_7016_64433" x="0" y="0" width="228" height="56.0546" filterUnits="userSpaceOnUse" color-interpolation-filters="sRGB">
<feFlood flood-opacity="0" result="BackgroundImageFix"/>
<feColorMatrix in="SourceAlpha" type="matrix" values="0 0 0 0 0 0 0 0 0 0 0 0 0 0 0 0 0 0 127 0" result="hardAlpha"/>
<feOffset dy="4"/>
<feGaussianBlur stdDeviation="2"/>
<feComposite in2="hardAlpha" operator="out"/>
<feColorMatrix type="matrix" values="0 0 0 0 0 0 0 0 0 0 0 0 0 0 0 0 0 0 0.25 0"/>
<feBlend mode="normal" in2="BackgroundImageFix" result="effect1_dropShadow_7016_64433"/>
<feColorMatrix in="SourceAlpha" type="matrix" values="0 0 0 0 0 0 0 0 0 0 0 0 0 0 0 0 0 0 127 0" result="hardAlpha"/>
<feOffset dy="4"/>
<feGaussianBlur stdDeviation="2"/>
<feComposite in2="hardAlpha" operator="out"/>
<feColorMatrix type="matrix" values="0 0 0 0 0 0 0 0 0 0 0 0 0 0 0 0 0 0 0.25 0"/>
<feBlend mode="normal" in2="effect1_dropShadow_7016_64433" result="effect2_dropShadow_7016_64433"/>
<feBlend mode="normal" in="SourceGraphic" in2="effect2_dropShadow_7016_64433" result="shape"/>
</filter>
</defs>
</svg>
